# xmcd
#
# Track frame offsets:
#	150
#	23995
#	55298
#
# Disc length: 1133 seconds
#
# Revision: 3
# Processed by: cddbd v1.5.1PL0 Copyright (c) Steve Scherf et al.
# Submitted via: audiograbber 1.83.01
#
DISCID=20046b03
DTITLE=Madonna - Borderline
DYEAR=1983
DGENRE=Pop
TTITLE0=Borderline (U.S. Remix)
TTITLE1=Borderline (Dub Remix)
TTITLE2=Physical Attraction
EXTD=
EXTT0=
EXTT1=
EXTT2=
PLAYORDER=
